<svg width="479" height="548" viewBox="0 0 479 548" fill="none" xmlns="http://www.w3.org/2000/svg">
<path d="M152.893 150.828C154.83 150.044 158.414 149.75 161.126 149.946C163.838 150.142 167.035 151.221 168.294 152.201C169.553 153.181 171.394 155.044 172.459 156.416C173.815 158.082 174.396 160.532 174.493 164.257C174.493 168.079 174.009 170.629 172.556 173.079C171.49 174.941 168.971 177.294 167.034 178.176C165.097 179.156 161.804 179.94 159.673 179.94C157.542 179.94 154.249 179.156 152.312 178.176C150.374 177.293 147.953 175.137 146.984 173.569C146.016 172.001 144.951 169.256 144.563 167.687C144.273 166.119 144.467 162.982 145.145 160.826C145.823 158.67 147.081 155.827 147.953 154.455C148.825 153.181 151.052 151.514 152.893 150.828ZM126.547 149.555C128.581 149.555 130.712 150.436 132.843 152.396C135.458 154.847 135.942 155.926 135.942 159.847C135.942 163.767 135.458 164.845 132.843 167.296C130.518 169.354 128.678 170.139 126.062 170.139C123.835 170.237 121.316 169.452 119.767 168.178C118.217 167.099 116.667 164.649 116.086 162.787C115.311 159.944 115.505 158.67 117.055 155.729C118.12 153.769 119.961 151.514 121.123 150.828C122.382 150.142 124.804 149.555 126.547 149.555ZM148.534 98.6825C152.118 98.6825 155.896 99.2703 158.221 100.349C160.352 101.329 163.644 103.975 165.484 106.132C167.325 108.288 169.456 111.817 170.037 113.876C170.715 115.934 171.296 119.267 171.296 121.129C171.296 122.991 170.619 126.52 169.844 128.971C168.972 131.421 166.938 134.851 165.194 136.714C163.451 138.478 160.352 140.83 158.221 141.81C155.896 142.889 152.118 143.673 148.825 143.673C145.726 143.673 141.56 142.987 139.623 142.104C137.589 141.32 134.683 139.458 133.23 137.988C131.681 136.518 129.55 133.577 128.388 131.421C126.935 128.578 126.354 125.736 126.354 121.129C126.354 116.62 126.935 113.581 128.388 110.837C129.453 108.68 131.875 105.641 133.618 104.073C135.459 102.505 138.268 100.643 139.817 99.9569C141.367 99.2709 145.338 98.6825 148.534 98.6825Z" fill="#FADB7A"/>
<path d="M152.893 150.828C154.83 150.044 158.414 149.75 161.126 149.946C163.838 150.142 167.035 151.221 168.294 152.201C169.553 153.181 171.394 155.044 172.459 156.416C173.815 158.082 174.396 160.532 174.493 164.257C174.493 168.079 174.009 170.629 172.556 173.079C171.49 174.941 168.971 177.294 167.034 178.176C165.097 179.156 161.804 179.94 159.673 179.94C157.542 179.94 154.249 179.156 152.312 178.176C150.374 177.293 147.953 175.137 146.984 173.569C146.016 172.001 144.951 169.256 144.563 167.687C144.273 166.119 144.467 162.982 145.145 160.826C145.823 158.67 147.081 155.827 147.953 154.455C148.825 153.181 151.052 151.514 152.893 150.828ZM126.547 149.555C128.581 149.555 130.712 150.436 132.843 152.396C135.458 154.847 135.942 155.926 135.942 159.847C135.942 163.767 135.458 164.845 132.843 167.296C130.518 169.354 128.678 170.139 126.062 170.139C123.835 170.237 121.316 169.452 119.767 168.178C118.217 167.099 116.667 164.649 116.086 162.787C115.311 159.944 115.505 158.67 117.055 155.729C118.12 153.769 119.961 151.514 121.123 150.828C122.382 150.142 124.804 149.555 126.547 149.555ZM148.534 98.6825C152.118 98.6825 155.896 99.2703 158.221 100.349C160.352 101.329 163.644 103.975 165.484 106.132C167.325 108.288 169.456 111.817 170.037 113.876C170.715 115.934 171.296 119.267 171.296 121.129C171.296 122.991 170.619 126.52 169.844 128.971C168.972 131.421 166.938 134.851 165.194 136.714C163.451 138.478 160.352 140.83 158.221 141.81C155.896 142.889 152.118 143.673 148.825 143.673C145.726 143.673 141.56 142.987 139.623 142.104C137.589 141.32 134.683 139.458 133.23 137.988C131.681 136.518 129.55 133.577 128.388 131.421C126.935 128.578 126.354 125.736 126.354 121.129C126.354 116.62 126.935 113.581 128.388 110.837C129.453 108.68 131.875 105.641 133.618 104.073C135.459 102.505 138.268 100.643 139.817 99.9569C141.367 99.2709 145.338 98.6825 148.534 98.6825Z" stroke="white"/>
<path d="M159.385 269.137C161.322 269.137 163.355 269.921 164.518 271.097C165.583 272.175 166.455 274.136 166.455 275.508C166.455 276.881 163.937 285.409 155.316 311.187H189.701C222.73 311.187 224.184 311.285 226.799 313.246C228.833 314.716 229.414 315.99 229.414 318.833C229.511 321.185 228.833 323.145 227.768 324.223C226.799 325.105 223.215 332.457 219.729 340.495C214.886 351.767 212.754 355.589 210.526 357.158C208.977 358.236 203.94 361.863 199.388 365.196C194.836 368.43 190.865 371.174 190.477 371.077C189.992 371.077 194.06 361.275 199.388 349.218C204.711 337.268 209.067 327.373 209.073 327.165C209.073 327.067 195.707 327.067 149.698 327.459L144.952 341.181C142.337 348.729 140.594 355.198 140.981 355.492C141.467 355.786 144.372 356.766 147.567 357.648C150.764 358.53 154.445 359.412 155.704 359.51C156.963 359.707 158.901 360.981 162.097 365.196L159.19 374.605C157.641 379.8 155.898 384.407 155.316 384.799C154.735 385.289 151.732 386.074 148.536 386.662C145.34 387.25 141.951 387.74 140.981 387.74C139.432 387.74 139.528 387.152 141.756 380.094C143.015 375.978 143.984 372.547 143.887 372.449C143.786 372.448 137.782 370.684 130.617 368.43C123.452 366.275 117.254 364.804 116.863 365.097C116.573 365.391 114.635 371.076 108.823 389.7H101.269C95.9421 389.7 93.8112 389.308 93.8105 388.426C93.8105 387.838 96.2317 379.8 99.2344 370.587C102.237 361.373 105.433 352.748 106.499 351.179C107.468 349.709 109.307 348.238 110.47 347.944C111.729 347.65 115.41 348.14 118.8 349.218C122.771 350.394 125.095 350.688 125.677 350.003C126.161 349.414 128.099 344.513 130.036 338.926C131.973 333.439 133.522 328.441 133.522 327.949C133.522 327.263 117.832 326.968 43.4434 326.968V311.285L139.528 310.796L146.212 291.191C150.086 279.725 153.572 271.1 154.541 270.412V270.313C155.51 269.725 157.641 269.137 159.385 269.137ZM59.4248 48.693C63.1054 48.693 69.3047 49.2809 72.9854 50.065C76.666 50.9472 83.059 53.2013 87.0303 55.1617C92.5513 57.8082 96.2322 60.6513 102.141 66.6305C108.049 72.6095 110.857 76.4325 113.473 81.9215C115.41 85.9402 117.735 91.9193 118.51 95.1539C119.285 98.3886 119.963 105.054 119.963 109.857C119.963 114.66 119.285 121.325 118.51 124.559C117.735 127.794 115.41 133.773 113.473 137.792C110.857 143.085 107.758 147.202 102.527 152.495C98.2655 156.808 92.8412 161.121 89.4512 162.983C86.2547 164.649 80.5399 167.002 76.8594 168.08C71.8228 169.648 67.4641 170.138 59.9092 170.138C52.3542 170.138 47.9956 169.648 42.959 168.08C39.2783 167.001 33.3698 164.453 29.8828 162.493C26.396 160.532 21.1658 156.514 18.1631 153.475C15.1605 150.535 11.189 145.634 9.34863 142.693C7.41146 139.752 4.699 133.97 3.24609 129.951C1.21206 124.364 0.43707 120.247 0.146484 112.797C-0.240945 105.74 0.146519 101.133 1.21191 96.1344C2.1805 92.4097 4.31203 86.1364 6.15234 82.4117C7.8958 78.589 11.964 72.708 15.0635 69.1793C18.2599 65.6506 23.3935 61.0437 26.5898 58.8873C29.6894 56.8289 35.1136 53.9858 38.6006 52.7115C42.0875 51.4373 46.6397 50.0649 48.7705 49.5748C50.9014 49.1827 55.7442 48.791 59.4248 48.693Z" fill="#FADB7A"/>
<path d="M159.385 269.137C161.322 269.137 163.355 269.921 164.518 271.097C165.583 272.175 166.455 274.136 166.455 275.508C166.455 276.881 163.937 285.409 155.316 311.187H189.701C222.73 311.187 224.184 311.285 226.799 313.246C228.833 314.716 229.414 315.99 229.414 318.833C229.511 321.185 228.833 323.145 227.768 324.223C226.799 325.105 223.215 332.457 219.729 340.495C214.886 351.767 212.754 355.589 210.526 357.158C208.977 358.236 203.94 361.863 199.388 365.196C194.836 368.43 190.865 371.174 190.477 371.077C189.992 371.077 194.06 361.275 199.388 349.218C204.711 337.268 209.067 327.373 209.073 327.165C209.073 327.067 195.707 327.067 149.698 327.459L144.952 341.181C142.337 348.729 140.594 355.198 140.981 355.492C141.467 355.786 144.372 356.766 147.567 357.648C150.764 358.53 154.445 359.412 155.704 359.51C156.963 359.707 158.901 360.981 162.097 365.196L159.19 374.605C157.641 379.8 155.898 384.407 155.316 384.799C154.735 385.289 151.732 386.074 148.536 386.662C145.34 387.25 141.951 387.74 140.981 387.74C139.432 387.74 139.528 387.152 141.756 380.094C143.015 375.978 143.984 372.547 143.887 372.449C143.786 372.448 137.782 370.684 130.617 368.43C123.452 366.275 117.254 364.804 116.863 365.097C116.573 365.391 114.635 371.076 108.823 389.7H101.269C95.9421 389.7 93.8112 389.308 93.8105 388.426C93.8105 387.838 96.2317 379.8 99.2344 370.587C102.237 361.373 105.433 352.748 106.499 351.179C107.468 349.709 109.307 348.238 110.47 347.944C111.729 347.65 115.41 348.14 118.8 349.218C122.771 350.394 125.095 350.688 125.677 350.003C126.161 349.414 128.099 344.513 130.036 338.926C131.973 333.439 133.522 328.441 133.522 327.949C133.522 327.263 117.832 326.968 43.4434 326.968V311.285L139.528 310.796L146.212 291.191C150.086 279.725 153.572 271.1 154.541 270.412V270.313C155.51 269.725 157.641 269.137 159.385 269.137ZM59.4248 48.693C63.1054 48.693 69.3047 49.2809 72.9854 50.065C76.666 50.9472 83.059 53.2013 87.0303 55.1617C92.5513 57.8082 96.2322 60.6513 102.141 66.6305C108.049 72.6095 110.857 76.4325 113.473 81.9215C115.41 85.9402 117.735 91.9193 118.51 95.1539C119.285 98.3886 119.963 105.054 119.963 109.857C119.963 114.66 119.285 121.325 118.51 124.559C117.735 127.794 115.41 133.773 113.473 137.792C110.857 143.085 107.758 147.202 102.527 152.495C98.2655 156.808 92.8412 161.121 89.4512 162.983C86.2547 164.649 80.5399 167.002 76.8594 168.08C71.8228 169.648 67.4641 170.138 59.9092 170.138C52.3542 170.138 47.9956 169.648 42.959 168.08C39.2783 167.001 33.3698 164.453 29.8828 162.493C26.396 160.532 21.1658 156.514 18.1631 153.475C15.1605 150.535 11.189 145.634 9.34863 142.693C7.41146 139.752 4.699 133.97 3.24609 129.951C1.21206 124.364 0.43707 120.247 0.146484 112.797C-0.240945 105.74 0.146519 101.133 1.21191 96.1344C2.1805 92.4097 4.31203 86.1364 6.15234 82.4117C7.8958 78.589 11.964 72.708 15.0635 69.1793C18.2599 65.6506 23.3935 61.0437 26.5898 58.8873C29.6894 56.8289 35.1136 53.9858 38.6006 52.7115C42.0875 51.4373 46.6397 50.0649 48.7705 49.5748C50.9014 49.1827 55.7442 48.791 59.4248 48.693Z" stroke="white"/>
<path d="M185.345 0.565439C189.123 0.0753497 199.971 -0.120832 209.56 0.0752045C221.861 0.271238 230.288 1.05517 238.133 2.5254C244.235 3.60361 254.987 6.44639 261.864 8.79884C268.741 11.1513 277.943 14.6803 282.204 16.6406C286.466 18.699 293.634 22.5211 298.187 25.2656C302.739 28.0102 310.391 33.2054 315.137 36.832C319.883 40.4587 328.019 47.5163 333.056 52.6133C338.189 57.7102 345.551 66.0417 349.425 71.1387C353.299 76.2356 358.337 83.4885 360.565 87.1152C362.696 90.84 365.02 93.5847 365.504 93.3887C365.989 93.0945 370.154 91.7221 374.706 90.252C381.099 88.1937 385.554 87.5073 394.562 87.1152C401.245 86.8212 409.963 87.116 414.903 87.7041C419.746 88.3902 428.463 90.4488 434.275 92.4092C440.086 94.2715 448.61 97.6034 453.162 99.7598C459.942 102.994 462.945 105.249 469.725 112.208C477.086 119.657 478.152 121.128 478.734 125.049C479.218 128.283 479.024 130.048 477.958 131.616C476.99 133.086 473.987 134.557 469.919 135.831C466.239 136.909 459.652 138.478 455.1 139.262C450.548 140.046 442.508 142.202 437.181 144.064C431.854 145.829 424.201 148.672 420.23 150.338C416.258 151.906 410.35 154.455 401.342 158.474L407.154 161.61C410.35 163.375 414.903 166.119 417.324 167.785C419.746 169.452 423.62 173.177 426.041 176.117C428.463 178.96 432.241 184.644 434.566 188.761C436.793 192.779 439.602 198.955 440.571 202.483C441.733 206.012 442.508 211.6 442.508 214.933C442.508 220.421 442.217 221.401 439.698 224.048C438.149 225.616 435.825 226.988 434.566 226.988C433.307 226.988 431.272 226.302 429.916 225.322C428.56 224.44 424.783 221.107 421.489 217.971C418.099 214.834 413.546 211.207 411.319 209.835C408.994 208.561 402.795 205.718 397.468 203.464C392.141 201.307 387.685 199.543 387.588 199.543C387.394 199.551 387.2 242.196 386.716 389.21L384.101 400.972C382.745 407.441 380.13 416.949 378.484 422.046C376.837 427.143 373.834 435.083 371.897 439.689C369.863 444.296 365.891 452.235 362.889 457.332C359.886 462.429 354.656 470.369 351.266 474.976C347.973 479.484 341.483 487.229 336.931 491.934C332.379 496.737 324.726 503.892 319.98 507.813C315.234 511.733 307.291 517.516 302.545 520.555C297.799 523.593 289.469 528.298 284.142 530.847C278.815 533.493 269.225 537.316 262.832 539.473C256.439 541.629 246.173 544.373 240.071 545.647C230.191 547.706 226.317 548 205.686 548C185.152 548 181.18 547.706 171.3 545.745C165.198 544.471 154.931 541.629 148.538 539.57C142.146 537.414 132.168 533.297 126.26 530.454C120.352 527.514 111.635 522.515 106.889 519.379C102.143 516.144 94.8777 510.851 90.9065 507.616C86.9352 504.382 79.6704 497.52 74.8274 492.521C70.0813 487.425 63.4954 479.779 60.2991 475.466C57.1027 471.153 52.2592 463.9 49.5471 459.293C46.8351 454.686 43.0576 447.629 41.1204 443.61C39.28 439.592 36.3744 432.534 34.7278 427.927C33.0812 423.32 30.466 414.498 28.9163 408.323C27.4634 402.148 25.7201 392.836 25.1389 387.739C24.2672 380.976 24.0731 348.238 24.2668 269.921C24.4605 210.332 24.848 161.228 25.3323 160.924C25.7197 160.63 28.3349 161.61 31.1438 163.179C33.8559 164.747 37.9246 166.609 43.9299 168.373L43.6389 269.921C43.4452 325.792 43.6393 374.605 43.9299 378.428C44.5111 384.603 44.7047 385.288 46.6418 385.484C47.8049 385.484 55.7468 386.269 64.2698 387.151C72.7934 387.936 88.2915 388.916 98.6555 389.308C110.472 389.7 122.386 389.504 130.619 388.817C137.787 388.131 146.988 386.955 150.959 386.171C154.93 385.289 162.777 383.132 168.395 381.27C174.013 379.407 181.858 376.075 185.829 373.919C189.801 371.763 197.84 366.469 203.748 362.059C209.947 357.55 219.73 351.57 226.994 347.943C233.871 344.513 242.88 340.592 246.851 339.22C250.822 337.945 257.409 336.28 261.38 335.691C265.545 335.005 272.616 334.809 277.846 335.104C282.883 335.496 289.663 336.377 292.86 337.161C296.056 338.043 303.32 340.985 309.034 343.827C318.623 348.728 319.302 348.924 319.786 347.062C320.077 345.983 321.627 338.24 323.274 329.908C324.823 321.577 327.147 307.854 328.406 299.522C330.15 287.172 330.635 280.115 330.635 261.785C330.635 239.339 330.634 239.142 327.341 226.498C325.598 219.539 323.854 213.461 323.467 213.069C323.175 212.678 320.27 214.443 317.074 217.089C313.878 219.735 309.422 224.244 307.195 227.087C304.967 230.028 301.674 236.398 299.737 241.201C297.896 246.004 295.571 250.807 294.603 251.787C293.537 252.865 291.406 253.552 288.985 253.552C285.982 253.65 284.626 253.061 282.98 251.101C281.721 249.728 280.268 246.69 279.687 244.436C279.009 241.789 278.814 235.81 279.105 228.459C279.395 221.99 280.267 214.541 281.139 211.796C281.914 209.149 282.398 206.698 282.108 206.404C281.912 206.111 277.845 207.385 273.197 209.247C268.547 211.011 260.799 214.54 256.053 216.893C251.307 219.343 243.848 223.656 239.586 226.498C235.324 229.341 230.772 232.87 229.416 234.34C228.06 235.81 225.445 239.927 223.605 243.456C221.668 247.181 219.149 250.611 217.599 251.493C215.662 252.571 214.306 252.768 212.368 251.983C210.916 251.395 208.882 249.729 207.72 248.259C205.976 245.808 205.686 243.847 205.298 232.085C205.104 222.871 205.492 215.912 206.46 209.835C207.332 205.032 209.173 197.288 210.529 192.682C211.981 188.075 214.694 181.312 216.728 177.587C218.665 173.764 222.152 168.569 224.573 165.923C226.995 163.276 230.675 160.042 232.806 158.768C234.937 157.591 240.652 155.337 245.398 153.965C250.144 152.593 254.309 151.219 254.6 151.023C254.889 150.729 252.952 149.651 250.241 148.476C246.851 147.005 242.783 146.221 236.681 145.927C231.935 145.731 226.995 144.947 225.832 144.358C224.573 143.672 223.217 142.203 222.636 141.026C222.152 139.752 221.667 137.791 221.667 136.615C221.667 135.341 222.926 132.204 224.476 129.46C226.026 126.814 230.579 121.325 234.647 117.502C238.715 113.581 244.236 109.268 246.851 107.896C249.563 106.523 254.212 104.759 257.312 103.975C260.702 103.092 267.192 102.505 273.972 102.505C283.173 102.505 286.37 102.897 292.375 104.955C296.831 106.425 303.223 109.758 308.841 113.482C316.977 118.971 318.624 120.638 328.698 135.831L332.185 126.715C334.122 121.814 337.124 115.345 338.964 112.404C340.804 109.464 343.323 106.328 347.101 103.583L344.777 99.3682C343.517 97.0158 340.03 91.7229 337.028 87.4102C334.025 83.1954 328.503 76.3336 324.726 72.2168C320.948 68.1 314.459 61.8265 310.198 58.2979C306.033 54.6712 298.864 49.3781 294.312 46.4375C289.759 43.3989 282.108 38.9885 277.362 36.5381C272.615 34.0876 264.286 30.5586 258.958 28.6963C253.631 26.834 245.011 24.3833 239.781 23.207C234.647 22.1288 224.863 20.6594 218.083 20.0713C208.882 19.1892 202.489 19.1892 193.094 20.0713C186.217 20.6594 175.949 22.2277 170.331 23.502C164.713 24.7762 156.19 27.324 151.444 28.9902C146.697 30.7546 138.367 34.3819 133.04 37.0283C127.713 39.7729 119.867 44.3792 115.606 47.2217C111.344 50.0642 105.435 54.4751 97.2024 61.2383L94.2971 59.2783C92.6505 58.2001 88.5819 55.9458 78.7991 51.3389L82.6731 47.9082C84.804 46.0459 90.0353 41.733 94.2971 38.4004C98.5589 34.9698 105.726 29.7751 110.279 26.9326C114.831 24.0901 122.87 19.6784 128.198 17.1299C133.525 14.5814 142.63 10.9555 148.538 8.99513C154.447 7.03475 163.552 4.48544 168.879 3.40724C174.206 2.32905 181.568 1.05552 185.345 0.565439ZM254.113 467.429C245.783 467.135 243.555 467.428 238.131 469.389C234.644 470.663 227.864 473.8 223.117 476.25C218.274 478.798 210.235 483.504 205.198 486.738C199.387 490.463 192.704 493.796 187.28 495.658C182.437 497.226 174.397 499.48 169.361 500.559C162.58 502.029 155.219 502.715 141.271 503.107C130.81 503.401 121.899 503.989 121.414 504.48C120.834 504.872 125.773 507.91 133.522 511.635C140.689 515.163 150.473 519.379 155.316 520.947C160.062 522.516 168.973 524.867 175.172 526.142C184.567 528.004 189.217 528.396 205.683 528.396C222.149 528.396 226.701 528.004 236.194 526.142C242.296 524.867 251.207 522.516 256.05 520.947C260.796 519.379 270.869 515.066 278.327 511.243C285.786 507.518 295.665 501.539 300.315 498.011L308.838 491.64C298.668 486.543 290.919 482.132 285.108 478.505C279.199 474.878 272.032 471.055 269.126 469.879C265.349 468.409 260.893 467.723 254.113 467.429ZM268.642 415.381C263.799 415.381 258.956 415.675 257.793 415.871C256.631 416.165 252.272 417.734 248.108 419.302C243.943 420.87 236.774 424.104 232.319 426.358C227.766 428.613 219.05 433.71 212.948 437.729C206.748 441.747 198.902 446.257 195.512 447.825C192.025 449.394 184.179 452.138 178.077 453.902C171.878 455.667 162.773 457.823 157.737 458.705C152.603 459.587 140.205 460.861 130.132 461.449C117.347 462.233 105.917 462.332 93.0344 461.646C82.7674 461.155 74.4377 460.96 74.4377 461.254C74.439 461.549 75.6009 463.313 77.053 465.174C78.5059 467.036 82.7676 472.133 86.5452 476.446C90.4195 480.857 95.0685 485.072 97.1995 486.15C100.59 487.719 104.174 488.111 124.805 488.503C140.787 488.797 151.151 488.601 156.769 487.816C161.224 487.13 167.616 485.954 170.813 485.17C174.009 484.386 179.627 482.524 183.405 481.151C187.085 479.681 195.415 474.976 201.808 470.663C208.201 466.35 217.499 460.96 222.633 458.705C227.67 456.451 234.644 453.902 238.131 452.922C242.974 451.648 247.139 451.353 256.534 451.647C266.607 452.04 269.61 452.53 274.453 454.588C277.65 455.862 285.011 459.882 290.919 463.41C296.731 466.939 304.382 471.251 307.869 473.016C312.519 475.368 315.521 476.251 319.396 476.349L324.626 476.446C333.537 465.86 337.993 459.881 340.318 456.353C342.642 452.824 344.773 449.295 345.064 448.511C345.451 447.433 343.998 446.551 338.574 444.885C333.925 443.414 326.37 439.591 316.103 433.22C307.579 428.025 297.99 422.536 294.793 421.065C291.597 419.595 286.366 417.635 283.17 416.753C279.683 415.871 273.872 415.283 268.642 415.381ZM275.422 358.04C272.226 357.746 266.704 357.942 263.314 358.334C259.827 358.726 253.144 360.686 248.301 362.744C243.458 364.705 236.677 367.841 233.287 369.605C229.8 371.37 220.987 376.859 213.625 381.76C206.361 386.661 197.643 392.052 194.253 393.719C190.96 395.483 183.017 398.521 176.624 400.678C170.232 402.736 160.837 405.285 155.8 406.363C150.666 407.343 141.561 408.716 135.459 409.304C128.195 410.088 112.891 410.283 91.3879 409.989C72.016 409.695 56.6153 409.107 54.0969 408.421C51.6761 407.833 49.4489 407.539 49.2541 407.833C48.9636 408.127 49.9323 411.754 51.2883 415.969C52.7412 420.085 55.4527 427.045 57.3899 431.357L60.8772 439.199C82.4769 441.65 96.2311 442.14 117.54 442.14C145.823 442.14 149.407 441.944 158.221 439.983C163.548 438.807 171.395 436.651 175.656 435.181C179.918 433.808 186.02 431.26 189.216 429.594C192.412 428.025 199.581 423.516 205.198 419.497C210.72 415.576 220.793 409.793 227.476 406.559C234.062 403.324 243.458 399.404 248.301 397.934C255.759 395.679 258.762 395.287 269.61 395.287C278.617 395.189 283.945 395.679 288.497 396.855C291.887 397.836 297.408 399.796 300.605 401.364C303.801 402.835 312.712 407.833 320.461 412.538C328.113 417.145 337.315 422.242 340.802 423.908C344.192 425.476 349.035 426.946 351.36 427.143L355.621 427.437C358.914 419.105 360.949 412.244 362.402 406.854C363.854 401.464 365.016 396.759 365.017 396.365C365.017 395.875 362.305 395.189 358.915 394.601C355.622 394.11 350.294 392.738 347.098 391.66C343.902 390.582 338.865 388.23 335.959 386.563C332.957 384.897 325.111 379.995 318.525 375.683C311.841 371.37 302.93 366.175 298.668 364.215C294.406 362.157 288.692 360.098 286.076 359.51C283.364 358.922 278.618 358.236 275.422 358.04ZM344.289 212.286C341.868 210.032 341.674 209.934 341.771 211.796C341.771 212.875 342.74 218.657 343.805 224.538C345.161 232.282 345.936 241.398 346.323 256.885C346.711 273.646 346.42 281.585 345.16 292.171C344.289 299.718 342.352 313.833 340.705 323.537C339.156 333.241 336.831 344.905 335.572 349.512C334.215 354.119 333.344 358.04 333.441 358.334C333.636 358.629 337.122 360.883 341.383 363.333C345.548 365.881 350.778 368.626 352.909 369.508C355.04 370.488 359.302 371.468 362.305 371.86L367.923 372.547V238.751C364.533 237.869 362.692 236.79 361.724 235.908C360.755 235.026 356.978 229.929 353.394 224.538C349.81 219.148 345.646 213.659 344.289 212.286ZM275.906 165.335C271.934 165.335 263.895 166.413 257.987 167.589C252.078 168.863 245.396 170.726 242.974 171.804C240.552 172.882 237.549 174.745 236.387 176.117C235.128 177.392 232.512 181.509 230.672 185.331C228.832 189.154 226.217 196.407 225.055 201.504C223.796 206.601 222.536 212.482 222.245 214.442C221.955 216.5 221.955 218.166 222.342 218.167C222.826 218.167 225.248 216.696 227.96 214.834C230.575 213.07 235.225 210.13 238.131 208.365C241.037 206.601 247.429 203.464 252.175 201.308C256.921 199.151 266.317 195.23 273 192.682C279.684 190.133 288.789 187.095 293.341 185.919C297.893 184.743 303.026 183.86 304.77 183.86C306.416 183.86 308.063 183.468 308.354 182.88C308.644 182.292 308.063 180.92 307.095 179.842C306.223 178.666 302.833 175.921 299.637 173.765C296.441 171.51 291.403 168.765 288.497 167.491C284.526 165.825 281.33 165.335 275.906 165.335ZM313.875 198.563C313.488 198.563 311.163 199.837 308.838 201.308C306.417 202.876 303.221 205.522 301.768 207.188C300.315 208.953 299.153 210.816 299.153 211.306C299.153 211.894 302.542 209.541 306.804 206.209C311.065 202.779 314.551 199.741 314.553 199.348C314.553 198.858 314.263 198.564 313.875 198.563ZM354.072 193.662C352.328 193.76 349.81 194.349 348.551 195.133C347.195 195.819 346.227 196.701 346.323 196.995C346.519 197.389 350.199 200.427 354.556 203.856C359.011 207.385 362.886 209.933 363.37 209.541C363.758 209.149 363.758 207.091 363.37 204.935C362.983 202.778 361.434 199.347 359.981 197.387C357.753 194.348 356.59 193.662 354.072 193.662ZM387.392 179.548L387.295 185.331C401.92 189.546 409.088 192.093 412.769 193.76C416.352 195.328 419.257 196.21 419.258 195.623C419.258 195.035 417.999 192.78 416.546 190.428C414.996 188.173 411.8 184.743 409.476 182.782C407.151 180.822 403.664 178.372 401.823 177.195C399.983 176.117 396.012 174.842 393.009 174.45L387.585 173.765L387.392 179.548ZM277.843 118.58C274.356 118.384 268.254 118.873 264.282 119.56C260.311 120.246 255.953 121.422 254.597 122.108C253.241 122.795 250.528 124.755 248.494 126.421C246.46 128.087 244.91 129.656 244.91 129.95C244.911 130.244 247.817 131.322 251.401 132.4C255.081 133.381 261.668 136.223 266.22 138.575C270.772 140.928 276.196 144.162 278.327 145.633C280.458 147.103 285.689 149.75 289.95 151.416C294.212 153.18 300.508 156.219 303.995 158.375C307.482 160.433 313.487 165.041 317.265 168.569L324.336 175.039C324.336 166.708 323.948 164.061 323.367 163.767C322.786 163.473 319.299 156.807 315.618 148.77C311.841 140.83 307.579 133.086 306.126 131.616C304.673 130.048 299.153 126.52 293.825 123.873C285.689 119.658 283.17 118.874 277.843 118.58ZM402.792 103.877C391.072 103.485 387.585 103.779 381.967 105.348C378.189 106.328 372.571 108.19 369.375 109.464C366.179 110.738 361.53 113.385 358.915 115.443C356.397 117.502 353.006 121.226 351.263 123.774C349.616 126.421 347.389 130.931 346.42 133.871C345.452 136.812 343.999 142.791 343.224 147.104C342.352 151.416 341.771 159.453 341.771 164.942V175.039C354.169 166.904 362.692 161.61 368.698 158.081C374.606 154.454 384.679 148.966 390.878 145.731C397.174 142.595 408.023 137.791 414.9 135.047C421.777 132.302 433.69 128.185 441.149 125.833C448.704 123.481 455.096 121.422 455.387 121.128C455.677 120.834 453.934 119.167 451.416 117.403C448.898 115.737 444.248 113.189 441.052 111.915C437.856 110.543 431.075 108.288 426.038 106.916C418.677 104.858 414.125 104.269 402.792 103.877Z" fill="#82C0DC"/>
</svg>
